<?xml version="1.0" encoding="UTF-8"?>
<!DOCTYPE svg PUBLIC "-//W3C//DTD SVG 1.1//EN" "http://www.w3.org/Graphics/SVG/1.1/DTD/svg11.dtd">
<svg xmlns="http://www.w3.org/2000/svg" version="1.1" width="512px" height="512px" style="shape-rendering:geometricPrecision; text-rendering:geometricPrecision; image-rendering:optimizeQuality; fill-rule:evenodd; clip-rule:evenodd" xmlns:xlink="http://www.w3.org/1999/xlink">
<g><path style="opacity:0.997" fill="#2568ef" d="M 248.5,15.5 C 260.579,14.0186 271.246,17.1852 280.5,25C 290.016,32.9253 300.349,39.5919 311.5,45C 315.264,45.9846 319.097,46.4846 323,46.5C 337.451,44.5603 351.951,43.727 366.5,44C 377.351,46.8448 385.184,53.3448 390,63.5C 394.568,75.2096 399.901,86.543 406,97.5C 409.201,101.036 412.701,104.203 416.5,107C 428.5,112.667 440.5,118.333 452.5,124C 463.441,130.715 468.441,140.548 467.5,153.5C 466.647,164.845 465.647,176.179 464.5,187.5C 464.332,195.827 466.499,203.493 471,210.5C 479.657,221.142 487.324,232.475 494,244.5C 496.912,255.091 495.578,265.091 490,274.5C 483.667,283.167 477.333,291.833 471,300.5C 466.601,307.364 464.434,314.864 464.5,323C 466.44,337.451 467.273,351.951 467,366.5C 465.276,375.553 460.443,382.387 452.5,387C 439.292,392.955 426.292,399.289 413.5,406C 409.964,409.201 406.797,412.701 404,416.5C 398.333,428.5 392.667,440.5 387,452.5C 380.285,463.441 370.452,468.441 357.5,467.5C 345.991,466.61 334.491,465.61 323,464.5C 314.864,464.434 307.364,466.601 300.5,471C 291.833,477.333 283.167,483.667 274.5,490C 261.821,497.332 249.154,497.332 236.5,490C 227.833,483.667 219.167,477.333 210.5,471C 203.636,466.601 196.136,464.434 188,464.5C 173.549,466.44 159.049,467.273 144.5,467C 135.447,465.276 128.613,460.443 124,452.5C 118.045,439.292 111.711,426.292 105,413.5C 101.799,409.964 98.2988,406.797 94.5,404C 82.5,398.333 70.5,392.667 58.5,387C 47.5586,380.285 42.5586,370.452 43.5,357.5C 44.3531,346.155 45.3531,334.821 46.5,323.5C 46.668,315.173 44.5014,307.507 40,300.5C 31.3432,289.858 23.6765,278.525 17,266.5C 14.0884,255.909 15.4218,245.909 21,236.5C 27.3333,227.833 33.6667,219.167 40,210.5C 44.5014,203.493 46.668,195.827 46.5,187.5C 44.5236,173.219 43.6903,158.886 44,144.5C 44.9941,138.847 47.3274,133.847 51,129.5C 55.0801,126.543 59.2467,123.71 63.5,121C 75.2096,116.432 86.543,111.099 97.5,105C 101.036,101.799 104.203,98.2988 107,94.5C 112.667,82.5 118.333,70.5 124,58.5C 130.715,47.5586 140.548,42.5586 153.5,43.5C 165.009,44.3898 176.509,45.3898 188,46.5C 196.136,46.566 203.636,44.3994 210.5,40C 219.167,33.6667 227.833,27.3333 236.5,21C 240.481,18.8381 244.481,17.0048 248.5,15.5 Z"/></g>
<g><path style="opacity:1" fill="#fdfaee" d="M 336.5,176.5 C 359.873,175.288 370.707,186.288 369,209.5C 368,211.833 367,214.167 366,216.5C 327.861,255.639 289.361,294.472 250.5,333C 239.128,341.66 227.794,341.66 216.5,333C 193.333,309.833 170.167,286.667 147,263.5C 136.276,244.342 140.776,230.176 160.5,221C 169.823,219.112 178.156,221.112 185.5,227C 201.347,243.014 217.347,258.847 233.5,274.5C 264.32,244.18 294.986,213.68 325.5,183C 328.933,180.289 332.6,178.123 336.5,176.5 Z"/></g>
</svg>
