<?xml version="1.0" standalone="no"?>
<!DOCTYPE svg PUBLIC "-//W3C//DTD SVG 20010904//EN"
 "http://www.w3.org/TR/2001/REC-SVG-20010904/DTD/svg10.dtd">
<svg version="1.0" xmlns="http://www.w3.org/2000/svg"
 width="310.000000pt" height="312.000000pt" viewBox="0 0 310.000000 312.000000"
 preserveAspectRatio="xMidYMid meet">

<g transform="translate(0.000000,312.000000) scale(0.100000,-0.100000)"
fill="#000000" stroke="none">
<path d="M1215 2710 c-192 -58 -368 -156 -474 -264 -51 -51 -54 -57 -43 -81
10 -21 9 -30 -6 -53 -10 -15 -17 -45 -17 -71 0 -39 -4 -46 -30 -61 -16 -9 -36
-27 -43 -41 -12 -23 -11 -76 3 -110 4 -12 -1 -18 -19 -23 -51 -13 -74 -110
-37 -158 19 -24 19 -24 -1 -37 -47 -29 -62 -132 -28 -189 19 -30 19 -35 5 -55
-31 -44 -14 -127 35 -164 12 -9 13 -16 3 -31 -19 -31 -25 -85 -14 -114 9 -24
6 -35 -19 -75 -17 -27 -36 -74 -42 -106 -22 -105 29 -239 112 -295 30 -20 44
-23 94 -20 51 4 63 9 87 35 l27 31 6 -33 c9 -48 53 -77 108 -73 35 2 45 -1 53
-17 26 -51 110 -79 157 -54 37 20 48 -11 48 -135 0 -172 30 -211 161 -209 64
1 106 14 121 37 4 6 8 54 8 106 0 103 2 107 43 133 26 17 28 17 56 -4 23 -17
38 -20 68 -16 21 4 44 14 50 24 12 16 15 16 47 0 l34 -16 4 -105 c4 -134 8
-140 119 -145 147 -6 170 20 179 204 l5 120 61 -3 c61 -4 62 -4 94 37 31 38
37 41 81 41 57 0 109 36 109 76 0 13 2 24 5 24 3 0 23 -18 44 -40 33 -35 44
-40 81 -40 93 0 173 90 201 227 16 78 1 154 -43 214 -26 36 -30 49 -26 88 3
25 2 57 -1 71 -6 20 -1 31 21 52 24 22 28 34 28 81 0 40 -5 61 -21 81 l-22 28
22 42 c11 24 21 55 21 70 0 33 -22 87 -42 104 -14 11 -14 16 3 49 11 21 19 48
19 61 0 31 -26 79 -50 92 -17 9 -19 17 -14 48 8 49 -17 108 -50 124 -21 9 -26
18 -26 46 0 51 -26 96 -70 121 -29 16 -40 29 -40 46 0 50 -92 125 -153 125
-16 0 -31 12 -48 37 -36 55 -83 83 -140 83 -38 0 -58 7 -93 31 -54 39 -120 48
-166 25 -31 -15 -34 -15 -61 8 -38 32 -82 41 -134 26 -31 -9 -48 -9 -63 -1
-48 26 -172 5 -184 -31 -4 -10 -10 -10 -32 0 -15 6 -36 12 -47 12 -11 0 -22 7
-25 15 -8 19 -24 18 -99 -5z m375 -13 c42 -22 45 -22 62 -5 31 31 91 24 136
-16 37 -34 37 -34 61 -15 42 34 121 21 173 -28 24 -23 35 -26 83 -24 42 2 63
-3 90 -19 44 -27 75 -66 75 -95 0 -18 5 -21 29 -17 72 10 141 -44 141 -111 0
-17 6 -30 18 -33 76 -25 97 -51 90 -117 -3 -31 1 -38 32 -59 42 -29 58 -74 42
-124 -10 -32 -9 -35 19 -49 53 -28 62 -74 29 -140 l-20 -39 28 -29 c37 -38 39
-119 4 -167 l-23 -31 30 -35 c45 -51 43 -96 -8 -144 -34 -33 -37 -39 -25 -55
23 -31 16 -71 -21 -119 -28 -37 -33 -50 -26 -69 18 -46 -33 -137 -76 -137 -10
0 -13 -6 -8 -17 35 -92 2 -155 -83 -158 -33 -1 -37 -4 -43 -35 -4 -19 -20 -45
-35 -58 -27 -24 -38 -24 -100 -6 -17 4 -23 0 -28 -20 -15 -61 -75 -83 -136
-51 -24 13 -30 13 -30 2 0 -7 -12 -24 -26 -38 -29 -27 -86 -32 -127 -10 -22
12 -27 10 -50 -13 -32 -32 -73 -34 -129 -5 l-41 21 -24 -26 c-14 -15 -35 -26
-50 -26 -29 0 -63 25 -63 47 0 17 -17 17 -27 0 -15 -25 -58 -47 -90 -47 -22 0
-44 10 -68 31 -27 24 -39 29 -48 20 -6 -6 -33 -11 -60 -11 -41 0 -53 5 -79 31
-27 27 -34 29 -55 20 -44 -20 -83 -13 -114 20 -16 17 -29 39 -29 48 0 28 -10
31 -44 10 -29 -17 -34 -17 -60 -3 -39 20 -55 43 -56 79 0 29 -2 30 -46 30 -39
0 -50 5 -76 34 -24 27 -29 40 -26 70 3 20 8 44 12 54 6 13 3 17 -12 17 -10 0
-31 9 -46 21 -21 16 -26 29 -26 63 0 23 7 51 15 62 18 24 19 34 1 34 -7 0 -25
11 -40 25 -31 29 -34 66 -7 116 l20 37 -26 23 c-58 55 -63 100 -15 151 l25 27
-32 26 c-28 24 -31 32 -31 82 0 50 3 58 35 90 l35 35 -20 28 c-40 57 -10 150
49 150 19 0 19 2 5 35 -7 19 -14 46 -14 60 0 29 49 85 74 85 22 0 26 12 17 51
-8 35 1 79 17 79 4 0 25 -30 46 -67 94 -165 159 -273 172 -284 11 -9 25 -8 62
6 64 25 291 141 391 201 69 41 81 52 81 75 0 25 -57 200 -114 353 -15 38 -24
71 -21 74 3 3 20 1 38 -5 29 -9 37 -7 55 12 19 20 70 40 108 44 6 1 30 -9 54
-22z m-990 -1497 c18 -10 18 -11 -1 -55 -18 -40 -18 -47 -5 -80 8 -19 26 -40
40 -47 23 -10 26 -17 26 -64 0 -62 31 -108 80 -119 36 -8 38 -18 5 -39 -66
-44 -163 1 -208 96 -48 99 -44 199 9 281 27 41 27 41 54 27z m2126 -108 c20
-69 12 -138 -27 -219 -37 -78 -77 -108 -140 -108 -32 0 -54 6 -68 19 -24 21
-28 46 -8 46 18 0 64 49 76 82 6 16 8 42 4 59 -5 25 0 36 27 64 28 29 34 44
38 92 2 32 9 64 15 72 17 20 64 -41 83 -107z m-1316 -527 l40 -7 0 -94 c0
-123 -9 -134 -113 -134 -48 0 -80 5 -94 15 -27 19 -43 85 -43 179 l0 76 44 -6
c24 -4 52 -2 62 4 14 8 24 6 41 -8 13 -10 41 -21 63 -25z m539 34 c21 -8 40
-8 60 -1 l28 10 6 -61 c8 -87 -7 -157 -38 -184 -22 -19 -38 -23 -96 -23 -99 0
-109 12 -109 133 l0 94 40 12 c21 6 42 16 45 21 8 13 25 13 64 -1z"/>
<path d="M2197 2384 c-37 -20 -30 -27 10 -12 45 17 89 -4 103 -48 10 -28 17
-34 40 -34 34 0 51 -19 61 -68 l7 -37 1 41 c1 43 -29 84 -62 84 -9 0 -23 13
-32 30 -15 29 -61 60 -87 60 -7 -1 -26 -8 -41 -16z"/>
<path d="M1024 1926 c-28 -13 -59 -34 -68 -47 -22 -32 -20 -75 5 -100 23 -23
47 -19 94 17 52 39 101 41 169 5 63 -34 85 -38 104 -19 35 35 -6 111 -79 148
-56 29 -158 27 -225 -4z"/>
<path d="M2060 1930 c-59 -12 -85 -27 -118 -64 -34 -39 -38 -56 -22 -87 15
-27 67 -25 112 6 53 36 112 34 166 -5 50 -36 85 -38 106 -8 24 33 19 66 -11
95 -55 51 -158 79 -233 63z"/>
<path d="M1103 1619 c-48 -14 -78 -63 -78 -127 0 -49 3 -56 37 -88 32 -29 45
-34 85 -34 103 0 159 87 119 185 -24 56 -94 84 -163 64z m120 -41 c17 -23 19
-32 9 -52 -15 -33 -55 -43 -87 -22 -31 21 -33 58 -3 86 29 26 56 22 81 -12z
m-113 -123 c17 -21 5 -45 -24 -45 -28 0 -37 17 -24 43 11 21 31 22 48 2z"/>
<path d="M2033 1615 c-58 -25 -88 -107 -63 -170 12 -30 12 -30 21 -7 11 30 37
39 56 19 22 -22 9 -47 -24 -47 l-28 -1 24 -19 c16 -14 38 -20 72 -20 42 0 55
5 85 33 110 101 -5 272 -143 212z m122 -19 c40 -29 14 -106 -37 -106 -24 0
-58 35 -58 60 0 25 34 60 58 60 10 0 27 -6 37 -14z"/>
<path d="M1478 1189 c18 -19 245 -20 264 -1 11 11 5 12 -32 5 -59 -10 -166
-10 -210 1 -29 7 -33 6 -22 -5z"/>
</g>
</svg>
